<svg width="18" height="19" viewBox="0 0 18 19" fill="none" xmlns="http://www.w3.org/2000/svg">
<path d="M1.54 0.264716V2.14472H16.38V0.264716H1.54ZM2.96 5.56472V7.12472H7.12V5.56472H2.96ZM2.52 7.86472V9.42472H7.14V7.86472H2.52ZM10.74 7.86472V9.42472H15.42V7.86472H10.74ZM10.74 5.56472V7.12472H14.94V5.56472H10.74ZM2.46 13.0847V14.8847H14.44V13.0847H2.46ZM1.72 15.8847V17.8047H14.6V15.8847H1.72ZM7.76 0.984716V9.64472H10.1V0.984716H7.76ZM2 10.2447V12.1247H13.44V18.4447H15.82V10.2447H2ZM0.18 2.96472V7.54472H2.3V4.80472H15.62V7.54472H17.84V2.96472H0.18Z" fill="#FAFCFC"/>
<path d="M1.54 0.264716V-0.235284H1.04V0.264716H1.54ZM1.54 2.14472H1.04V2.64472H1.54V2.14472ZM16.38 2.14472V2.64472H16.88V2.14472H16.38ZM16.38 0.264716H16.88V-0.235284H16.38V0.264716ZM2.96 5.56472V5.06472H2.46V5.56472H2.96ZM2.96 7.12472H2.46V7.62472H2.96V7.12472ZM7.12 7.12472V7.62472H7.62V7.12472H7.12ZM7.12 5.56472H7.62V5.06472H7.12V5.56472ZM2.52 7.86472V7.36472H2.02V7.86472H2.52ZM2.52 9.42472H2.02V9.92472H2.52V9.42472ZM7.14 9.42472V9.92472H7.64V9.42472H7.14ZM7.14 7.86472H7.64V7.36472H7.14V7.86472ZM10.74 7.86472V7.36472H10.24V7.86472H10.74ZM10.74 9.42472H10.24V9.92472H10.74V9.42472ZM15.42 9.42472V9.92472H15.92V9.42472H15.42ZM15.42 7.86472H15.92V7.36472H15.42V7.86472ZM10.74 5.56472V5.06472H10.24V5.56472H10.74ZM10.74 7.12472H10.24V7.62472H10.74V7.12472ZM14.94 7.12472V7.62472H15.44V7.12472H14.94ZM14.94 5.56472H15.44V5.06472H14.94V5.56472ZM2.46 13.0847V12.5847H1.96V13.0847H2.46ZM2.46 14.8847H1.96V15.3847H2.46V14.8847ZM14.44 14.8847V15.3847H14.94V14.8847H14.44ZM14.44 13.0847H14.94V12.5847H14.44V13.0847ZM1.72 15.8847V15.3847H1.22V15.8847H1.72ZM1.72 17.8047H1.22V18.3047H1.72V17.8047ZM14.6 17.8047V18.3047H15.1V17.8047H14.6ZM14.6 15.8847H15.1V15.3847H14.6V15.8847ZM7.76 0.984716V0.484716H7.26V0.984716H7.76ZM7.76 9.64472H7.26V10.1447H7.76V9.64472ZM10.1 9.64472V10.1447H10.6V9.64472H10.1ZM10.1 0.984716H10.6V0.484716H10.1V0.984716ZM2 10.2447V9.74472H1.5V10.2447H2ZM2 12.1247H1.5V12.6247H2V12.1247ZM13.44 12.1247H13.94V11.6247H13.44V12.1247ZM13.44 18.4447H12.94V18.9447H13.44V18.4447ZM15.82 18.4447V18.9447H16.32V18.4447H15.82ZM15.82 10.2447H16.32V9.74472H15.82V10.2447ZM0.18 2.96472V2.46472H-0.32V2.96472H0.18ZM0.18 7.54472H-0.32V8.04472H0.18V7.54472ZM2.3 7.54472V8.04472H2.8V7.54472H2.3ZM2.3 4.80472V4.30472H1.8V4.80472H2.3ZM15.62 4.80472H16.12V4.30472H15.62V4.80472ZM15.62 7.54472H15.12V8.04472H15.62V7.54472ZM17.84 7.54472V8.04472H18.34V7.54472H17.84ZM17.84 2.96472H18.34V2.46472H17.84V2.96472ZM1.04 0.264716V2.14472H2.04V0.264716H1.04ZM1.54 2.64472H16.38V1.64472H1.54V2.64472ZM16.88 2.14472V0.264716H15.88V2.14472H16.88ZM16.38 -0.235284H1.54V0.764716H16.38V-0.235284ZM2.46 5.56472V7.12472H3.46V5.56472H2.46ZM2.96 7.62472H7.12V6.62472H2.96V7.62472ZM7.62 7.12472V5.56472H6.62V7.12472H7.62ZM7.12 5.06472H2.96V6.06472H7.12V5.06472ZM2.02 7.86472V9.42472H3.02V7.86472H2.02ZM2.52 9.92472H7.14V8.92472H2.52V9.92472ZM7.64 9.42472V7.86472H6.64V9.42472H7.64ZM7.14 7.36472H2.52V8.36472H7.14V7.36472ZM10.24 7.86472V9.42472H11.24V7.86472H10.24ZM10.74 9.92472H15.42V8.92472H10.74V9.92472ZM15.92 9.42472V7.86472H14.92V9.42472H15.92ZM15.42 7.36472H10.74V8.36472H15.42V7.36472ZM10.24 5.56472V7.12472H11.24V5.56472H10.24ZM10.74 7.62472H14.94V6.62472H10.74V7.62472ZM15.44 7.12472V5.56472H14.44V7.12472H15.44ZM14.94 5.06472H10.74V6.06472H14.94V5.06472ZM1.96 13.0847V14.8847H2.96V13.0847H1.96ZM2.46 15.3847H14.44V14.3847H2.46V15.3847ZM14.94 14.8847V13.0847H13.94V14.8847H14.94ZM14.44 12.5847H2.46V13.5847H14.44V12.5847ZM1.22 15.8847V17.8047H2.22V15.8847H1.22ZM1.72 18.3047H14.6V17.3047H1.72V18.3047ZM15.1 17.8047V15.8847H14.1V17.8047H15.1ZM14.6 15.3847H1.72V16.3847H14.6V15.3847ZM7.26 0.984716V9.64472H8.26V0.984716H7.26ZM7.76 10.1447H10.1V9.14472H7.76V10.1447ZM10.6 9.64472V0.984716H9.6V9.64472H10.6ZM10.1 0.484716H7.76V1.48472H10.1V0.484716ZM1.5 10.2447V12.1247H2.5V10.2447H1.5ZM2 12.6247H13.44V11.6247H2V12.6247ZM12.94 12.1247V18.4447H13.94V12.1247H12.94ZM13.44 18.9447H15.82V17.9447H13.44V18.9447ZM16.32 18.4447V10.2447H15.32V18.4447H16.32ZM15.82 9.74472H2V10.7447H15.82V9.74472ZM-0.32 2.96472V7.54472H0.68V2.96472H-0.32ZM0.18 8.04472H2.3V7.04472H0.18V8.04472ZM2.8 7.54472V4.80472H1.8V7.54472H2.8ZM2.3 5.30472H15.62V4.30472H2.3V5.30472ZM15.12 4.80472V7.54472H16.12V4.80472H15.12ZM15.62 8.04472H17.84V7.04472H15.62V8.04472ZM18.34 7.54472V2.96472H17.34V7.54472H18.34ZM17.84 2.46472H0.18V3.46472H17.84V2.46472Z" fill="#1F1F1F"/>
</svg>
