<svg width="24" height="25" viewBox="0 0 24 25" fill="none" xmlns="http://www.w3.org/2000/svg">
<path opacity="0.4" d="M9 2.72668C6.38 2.72668 4.25 4.8815 4.25 7.53203C4.25 10.132 6.26 12.2362 8.88 12.3273C8.96 12.3172 9.04 12.3172 9.1 12.3273H9.17C10.3994 12.2858 11.5646 11.7622 12.4193 10.8674C13.274 9.97248 13.7512 8.77641 13.75 7.53203C13.75 4.8815 11.62 2.72668 9 2.72668Z" fill="#FAFCFC"/>
<path d="M14.08 15.0172C11.29 13.1355 6.74002 13.1355 3.93002 15.0172C2.66002 15.8771 1.96002 17.0405 1.96002 18.2848C1.96002 19.5292 2.66002 20.6825 3.92002 21.5323C5.32002 22.4832 7.16002 22.9587 9.00002 22.9587C10.84 22.9587 12.68 22.4832 14.08 21.5323C15.34 20.6724 16.04 19.5191 16.04 18.2646C16.03 17.0203 15.34 15.867 14.08 15.0172Z" fill="#FAFCFC"/>
<path opacity="0.4" d="M19.99 8.12685C20.15 10.0895 18.77 11.8093 16.86 12.0419H16.81C16.75 12.0419 16.69 12.0419 16.64 12.0622C15.67 12.1128 14.78 11.7991 14.11 11.2225C15.14 10.2918 15.73 8.8957 15.61 7.37822C15.5414 6.58914 15.2765 5.83045 14.84 5.17282C15.364 4.91493 15.9421 4.78988 16.5245 4.80844C17.1069 4.82701 17.6762 4.98865 18.1831 5.2794C18.69 5.57016 19.1193 5.9813 19.4341 6.47737C19.7489 6.97345 19.9397 7.53955 19.99 8.12685Z" fill="#FAFCFC"/>
<path d="M21.988 17.4867C21.908 18.468 21.288 19.3178 20.248 19.8944C19.248 20.4508 17.988 20.7139 16.738 20.6835C17.458 20.0259 17.878 19.2065 17.958 18.3365C18.058 17.082 17.468 15.8782 16.288 14.9171C15.618 14.3809 14.838 13.956 13.988 13.6424C16.198 12.995 18.978 13.43 20.688 14.826C21.608 15.5747 22.078 16.5155 21.988 17.4867Z" fill="#FAFCFC"/>
</svg>
